<mxfile host="app.diagrams.net" modified="2025-05-04T00:00:00.000Z" agent="5.0 (Macintosh)" etag="1234567890" version="22.0.0" type="device">
  <diagram id="system-admin" name="システム管理画面遷移図">
    <mxGraphModel dx="1422" dy="798" grid="1" gridSize="10" guides="1" tooltips="1" connect="1" arrows="1" fold="1" page="1" pageScale="1" pageWidth="1169" pageHeight="827" math="0" shadow="0">
      <root>
        <mxCell id="0" />
        <mxCell id="1" parent="0" />
        
        <!-- 共通画面 -->
        <mxCell id="CMN002" value="ダッシュボード画面&#xa;(CMN-002)" style="rounded=1;whiteSpace=wrap;html=1;fillColor=#dae8fc;strokeColor=#6c8ebf;" vertex="1" parent="1">
          <mxGeometry x="120" y="40" width="120" height="60" as="geometry" />
        </mxCell>
        <mxCell id="CMN003" value="メニュー画面&#xa;(CMN-003)" style="rounded=1;whiteSpace=wrap;html=1;fillColor=#dae8fc;strokeColor=#6c8ebf;" vertex="1" parent="1">
          <mxGeometry x="280" y="40" width="120" height="60" as="geometry" />
        </mxCell>
        
        <!-- システム管理画面群 -->
        <mxCell id="ADM001" value="ユーザー管理画面&#xa;(ADM-001)" style="rounded=1;whiteSpace=wrap;html=1;fillColor=#f5f5f5;strokeColor=#666666;fontColor=#333333;" vertex="1" parent="1">
          <mxGeometry x="280" y="160" width="120" height="60" as="geometry" />
        </mxCell>
        <mxCell id="ADM002" value="ロール管理画面&#xa;(ADM-002)" style="rounded=1;whiteSpace=wrap;html=1;fillColor=#f5f5f5;strokeColor=#666666;fontColor=#333333;" vertex="1" parent="1">
          <mxGeometry x="440" y="160" width="120" height="60" as="geometry" />
        </mxCell>
        <mxCell id="ADM003" value="マスタ管理画面&#xa;(ADM-003)" style="rounded=1;whiteSpace=wrap;html=1;fillColor=#f5f5f5;strokeColor=#666666;fontColor=#333333;" vertex="1" parent="1">
          <mxGeometry x="280" y="280" width="120" height="60" as="geometry" />
        </mxCell>
        <mxCell id="ADM004" value="ログ管理画面&#xa;(ADM-004)" style="rounded=1;whiteSpace=wrap;html=1;fillColor=#f5f5f5;strokeColor=#666666;fontColor=#333333;" vertex="1" parent="1">
          <mxGeometry x="440" y="280" width="120" height="60" as="geometry" />
        </mxCell>
        <mxCell id="ADM005" value="バッチ管理画面&#xa;(ADM-005)" style="rounded=1;whiteSpace=wrap;html=1;fillColor=#f5f5f5;strokeColor=#666666;fontColor=#333333;" vertex="1" parent="1">
          <mxGeometry x="600" y="280" width="120" height="60" as="geometry" />
        </mxCell>
        
        <!-- 画面遷移 -->
        <mxCell id="CMN003-ADM001" style="edgeStyle=orthogonalEdgeStyle;rounded=0;orthogonalLoop=1;jettySize=auto;html=1;exitX=0.5;exitY=1;exitDx=0;exitDy=0;entryX=0.5;entryY=0;entryDx=0;entryDy=0;" edge="1" parent="1" source="CMN003" target="ADM001">
          <mxGeometry relative="1" as="geometry" />
        </mxCell>
        <mxCell id="CMN003-ADM001-label" value="ユーザー管理メニュー選択" style="edgeLabel;html=1;align=center;verticalAlign=middle;resizable=0;points=[];" vertex="1" connectable="0" parent="CMN003-ADM001">
          <mxGeometry x="-0.2" y="1" relative="1" as="geometry">
            <mxPoint as="offset" />
          </mxGeometry>
        </mxCell>
        
        <mxCell id="CMN003-ADM002" style="edgeStyle=orthogonalEdgeStyle;rounded=0;orthogonalLoop=1;jettySize=auto;html=1;exitX=1;exitY=0.5;exitDx=0;exitDy=0;entryX=0.5;entryY=0;entryDx=0;entryDy=0;" edge="1" parent="1" source="CMN003" target="ADM002">
          <mxGeometry relative="1" as="geometry">
            <Array as="points">
              <mxPoint x="500" y="70" />
            </Array>
          </mxGeometry>
        </mxCell>
        <mxCell id="CMN003-ADM002-label" value="ロール管理メニュー選択" style="edgeLabel;html=1;align=center;verticalAlign=middle;resizable=0;points=[];" vertex="1" connectable="0" parent="CMN003-ADM002">
          <mxGeometry x="-0.2" y="1" relative="1" as="geometry">
            <mxPoint as="offset" />
          </mxGeometry>
        </mxCell>
        
        <mxCell id="CMN002-ADM001" style="edgeStyle=orthogonalEdgeStyle;rounded=0;orthogonalLoop=1;jettySize=auto;html=1;exitX=1;exitY=0.5;exitDx=0;exitDy=0;entryX=0;entryY=0;entryDx=0;entryDy=0;" edge="1" parent="1" source="CMN002" target="ADM001">
          <mxGeometry relative="1" as="geometry">
            <Array as="points">
              <mxPoint x="250" y="70" />
              <mxPoint x="250" y="140" />
              <mxPoint x="280" y="140" />
            </Array>
          </mxGeometry>
        </mxCell>
        <mxCell id="CMN002-ADM001-label" value="システム管理ウィジェット" style="edgeLabel;html=1;align=center;verticalAlign=middle;resizable=0;points=[];" vertex="1" connectable="0" parent="CMN002-ADM001">
          <mxGeometry x="-0.2" y="1" relative="1" as="geometry">
            <mxPoint as="offset" />
          </mxGeometry>
        </mxCell>
        
        <mxCell id="ADM001-ADM003" style="edgeStyle=orthogonalEdgeStyle;rounded=0;orthogonalLoop=1;jettySize=auto;html=1;exitX=0.5;exitY=1;exitDx=0;exitDy=0;entryX=0.5;entryY=0;entryDx=0;entryDy=0;" edge="1" parent="1" source="ADM001" target="ADM003">
          <mxGeometry relative="1" as="geometry" />
        </mxCell>
        <mxCell id="ADM001-ADM003-label" value="マスタ管理タブ" style="edgeLabel;html=1;align=center;verticalAlign=middle;resizable=0;points=[];" vertex="1" connectable="0" parent="ADM001-ADM003">
          <mxGeometry x="-0.2" y="1" relative="1" as="geometry">
            <mxPoint as="offset" />
          </mxGeometry>
        </mxCell>
        
        <mxCell id="ADM001-ADM002" style="edgeStyle=orthogonalEdgeStyle;rounded=0;orthogonalLoop=1;jettySize=auto;html=1;exitX=1;exitY=0.5;exitDx=0;exitDy=0;entryX=0;entryY=0.5;entryDx=0;entryDy=0;" edge="1" parent="1" source="ADM001" target="ADM002">
          <mxGeometry relative="1" as="geometry" />
        </mxCell>
        <mxCell id="ADM001-ADM002-label" value="ロール管理タブ" style="edgeLabel;html=1;align=center;verticalAlign=middle;resizable=0;points=[];" vertex="1" connectable="0" parent="ADM001-ADM002">
          <mxGeometry x="-0.2" y="1" relative="1" as="geometry">
            <mxPoint as="offset" />
          </mxGeometry>
        </mxCell>
        
        <mxCell id="ADM002-ADM001" style="edgeStyle=orthogonalEdgeStyle;rounded=0;orthogonalLoop=1;jettySize=auto;html=1;exitX=0;exitY=0.5;exitDx=0;exitDy=0;entryX=1;entryY=0.5;entryDx=0;entryDy=0;" edge="1" parent="1" source="ADM002" target="ADM001">
          <mxGeometry relative="1" as="geometry" />
        </mxCell>
        <mxCell id="ADM002-ADM001-label" value="ユーザー管理タブ" style="edgeLabel;html=1;align=center;verticalAlign=middle;resizable=0;points=[];" vertex="1" connectable="0" parent="ADM002-ADM001">
          <mxGeometry x="-0.2" y="1" relative="1" as="geometry">
            <mxPoint as="offset" />
          </mxGeometry>
        </mxCell>
        
        <mxCell id="ADM002-ADM004" style="edgeStyle=orthogonalEdgeStyle;rounded=0;orthogonalLoop=1;jettySize=auto;html=1;exitX=0.5;exitY=1;exitDx=0;exitDy=0;entryX=0.5;entryY=0;entryDx=0;entryDy=0;" edge="1" parent="1" source="ADM002" target="ADM004">
          <mxGeometry relative="1" as="geometry" />
        </mxCell>
        <mxCell id="ADM002-ADM004-label" value="ログ管理タブ" style="edgeLabel;html=1;align=center;verticalAlign=middle;resizable=0;points=[];" vertex="1" connectable="0" parent="ADM002-ADM004">
          <mxGeometry x="-0.2" y="1" relative="1" as="geometry">
            <mxPoint as="offset" />
          </mxGeometry>
        </mxCell>
        
        <mxCell id="ADM003-ADM001" style="edgeStyle=orthogonalEdgeStyle;rounded=0;orthogonalLoop=1;jettySize=auto;html=1;exitX=0.5;exitY=0;exitDx=0;exitDy=0;entryX=0.5;entryY=1;entryDx=0;entryDy=0;" edge="1" parent="1" source="ADM003" target="ADM001">
          <mxGeometry relative="1" as="geometry" />
        </mxCell>
        <mxCell id="ADM003-ADM001-label" value="ユーザー管理タブ" style="edgeLabel;html=1;align=center;verticalAlign=middle;resizable=0;points=[];" vertex="1" connectable="0" parent="ADM003-ADM001">
          <mxGeometry x="-0.2" y="1" relative="1" as="geometry">
            <mxPoint as="offset" />
          </mxGeometry>
        </mxCell>
        
        <mxCell id="ADM003-ADM004" style="edgeStyle=orthogonalEdgeStyle;rounded=0;orthogonalLoop=1;jettySize=auto;html=1;exitX=1;exitY=0.5;exitDx=0;exitDy=0;entryX=0;entryY=0.5;entryDx=0;entryDy=0;" edge="1" parent="1" source="ADM003" target="ADM004">
          <mxGeometry relative="1" as="geometry" />
        </mxCell>
        <mxCell id="ADM003-ADM004-label" value="ログ管理タブ" style="edgeLabel;html=1;align=center;verticalAlign=middle;resizable=0;points=[];" vertex="1" connectable="0" parent="ADM003-ADM004">
          <mxGeometry x="-0.2" y="1" relative="1" as="geometry">
            <mxPoint as="offset" />
          </mxGeometry>
        </mxCell>
        
        <mxCell id="ADM004-ADM001" style="edgeStyle=orthogonalEdgeStyle;rounded=0;orthogonalLoop=1;jettySize=auto;html=1;exitX=0;exitY=0;exitDx=0;exitDy=0;entryX=1;entryY=1;entryDx=0;entryDy=0;" edge="1" parent="1" source="ADM004" target="ADM001">
          <mxGeometry relative="1" as="geometry" />
        </mxCell>
        <mxCell id="ADM004-ADM001-label" value="ユーザー管理タブ" style="edgeLabel;html=1;align=center;verticalAlign=middle;resizable=0;points=[];" vertex="1" connectable="0" parent="ADM004-ADM001">
          <mxGeometry x="-0.2" y="1" relative="1" as="geometry">
            <mxPoint as="offset" />
          </mxGeometry>
        </mxCell>
        
        <mxCell id="ADM004-ADM003" style="edgeStyle=orthogonalEdgeStyle;rounded=0;orthogonalLoop=1;jettySize=auto;html=1;exitX=0;exitY=0.5;exitDx=0;exitDy=0;entryX=1;entryY=0.5;entryDx=0;entryDy=0;" edge="1" parent="1" source="ADM004" target="ADM003">
          <mxGeometry relative="1" as="geometry" />
        </mxCell>
        <mxCell id="ADM004-ADM003-label" value="マスタ管理タブ" style="edgeLabel;html=1;align=center;verticalAlign=middle;resizable=0;points=[];" vertex="1" connectable="0" parent="ADM004-ADM003">
          <mxGeometry x="-0.2" y="1" relative="1" as="geometry">
            <mxPoint as="offset" />
          </mxGeometry>
        </mxCell>
        
        <mxCell id="ADM004-ADM005" style="edgeStyle=orthogonalEdgeStyle;rounded=0;orthogonalLoop=1;jettySize=auto;html=1;exitX=1;exitY=0.5;exitDx=0;exitDy=0;entryX=0;entryY=0.5;entryDx=0;entryDy=0;" edge="1" parent="1" source="ADM004" target="ADM005">
          <mxGeometry relative="1" as="geometry" />
        </mxCell>
        <mxCell id="ADM004-ADM005-label" value="バッチ管理タブ" style="edgeLabel;html=1;align=center;verticalAlign=middle;resizable=0;points=[];" vertex="1" connectable="0" parent="ADM004-ADM005">
          <mxGeometry x="-0.2" y="1" relative="1" as="geometry">
            <mxPoint as="offset" />
          </mxGeometry>
        </mxCell>
        
        <mxCell id="ADM005-ADM004" style="edgeStyle=orthogonalEdgeStyle;rounded=0;orthogonalLoop=1;jettySize=auto;html=1;exitX=0;exitY=0.5;exitDx=0;exitDy=0;entryX=1;entryY=0.5;entryDx=0;entryDy=0;" edge="1" parent="1" source="ADM005" target="ADM004">
          <mxGeometry relative="1" as="geometry" />
        </mxCell>
        <mxCell id="ADM005-ADM004-label" value="ログ管理タブ" style="edgeLabel;html=1;align=center;verticalAlign=middle;resizable=0;points=[];" vertex="1" connectable="0" parent="ADM005-ADM004">
          <mxGeometry x="-0.2" y="1" relative="1" as="geometry">
            <mxPoint as="offset" />
          </mxGeometry>
        </mxCell>
        
        <!-- 説明 -->
        <mxCell id="legend" value="凡例：&#xa;青色 - 共通画面&#xa;灰色 - システム管理画面" style="shape=note;whiteSpace=wrap;html=1;backgroundOutline=1;darkOpacity=0.05;" vertex="1" parent="1">
          <mxGeometry x="600" y="40" width="150" height="60" as="geometry" />
        </mxCell>
      </root>
    </mxGraphModel>
  </diagram>
</mxfile>